<?xml version="1.0" encoding="utf-8"?>
<!-- Generator: Adobe Illustrator 16.0.0, SVG Export Plug-In . SVG Version: 6.00 Build 0)  -->
<!DOCTYPE svg PUBLIC "-//W3C//DTD SVG 1.1//EN" "http://www.w3.org/Graphics/SVG/1.1/DTD/svg11.dtd">
<svg version="1.1" id="Layer_1" xmlns="http://www.w3.org/2000/svg" xmlns:xlink="http://www.w3.org/1999/xlink" x="0px" y="0px"
	 width="154.667px" height="387.333px" viewBox="0 0 154.667 387.333" enable-background="new 0 0 154.667 387.333"
	 xml:space="preserve">
<path fill="#FCEE21" d="M42.979,26.538C24.656,27.833,23.318,53.659,25,67.218c-1.719,9,25.057,1.021,34.75-2.135
	c5.375-1.75,8.008-3.421,8.25-3.5c6.362-2.08,13.08-1.442,16.868-6.092c7.673-9.421,4.194-26.098,4.194-26.098
	S57.844,27.833,42.979,26.538"/>
<path fill="#FCEE21" d="M121.382,25.538c8.355,3.469,18.395,14.818,19.993,31.17c1.56,15.949-28.933,21.536-38.25,6.75
	c-5.75-9.125-17.26-5.512-17.885-8.447c-0.762-3.576,4.391-26.089,2.266-25.839"/>
<path fill="#FCEE21" d="M62.5,14.896c11.392,7.595,27.346-3.938,30.75-3.938c8.436,5.516,28.875,14.58,28.875,14.58
	c-8.563,0.563-33.604,4.726-49.946,3.99c-16.342-0.735-32.467-2.99-32.467-2.99s7.2-2.164,15.745-7.873"/>
<path fill="#FCEE21" d="M41.99,76.144c0.842,15.309,2.88,30.256,11.15,31.125c16.27-0.798,26.961,0.613,41.266,3.332
	c18.979,3.606,33.633-43.188,25.354-49.518c-5.514-4.217-19.301-6.041-28.461-6.223c-4.588-0.091-7.115,0.258-7.711,0.305
	c-6.504,0.513-34.081,3.891-41.079,12.876c-1.261,1.619-0.887,3.348-0.644,5.353"/>
<path fill="#FCEE21" d="M21.182,84.958c-0.942,11.525-1.32,18.858,4.396,20.467c4.179,1.176,10.547,7.299,14.135,0.814
	c1.319-2.384,3.923-10.675,3.788-13.781c-0.375-8.625-2.644-28.934-2.375-40.465C41.205,48.562,22.5,68.833,21.182,84.958z"/>
<path fill="#FCEE21" d="M125.86,94.614c5.717,9.006,11.269,14.902,16.45,13.123c3.787-1.299,7.952-3.234,7.273-10.038
	c-0.25-2.501-1.056-16.417-1.974-19.134c-0.549-1.624-3.825-9.328-4.11-10.482c-5.875-23.75-19.061-4.278-20.484-6.373
	C115.84,51.149,118.375,82.822,125.86,94.614z"/>
<path fill="#FCEE21" d="M39.537,133.774c-0.008,10.684,1.879,9.26,10.088,7.934c16.25-2.625,31.82-4.093,46.125-1.375
	c18.979,3.606,11.773-14.795,6.625-22.5c-4.412-6.603-35.153-9.042-35.75-9.029c-3.121,0.067-13.752-1.081-20.75,7.904
	C44.614,118.327,39.294,131.769,39.537,133.774"/>
<path fill="#FCEE21" d="M31.75,171.958c-4.984,18.022-10.063,42.164-9.62,60.83c0.442,18.668,2.045,41,5.409,46
	c3.366,5,10.794-0.623,15.461,5.045c4.666,5.666,4.75-0.75,8.75-6.75s6.75-2.957,7.75-11.625c1-8.666,6.125-34.784,8.125-46.25
	c0.653-3.743,3.365-14.474,2-18.375c-0.412-1.182-26.697-1.5-29.875-13.25c-2.814-10.404-5.644-17.994-6.375-19.875"/>
<path fill="#FCEE21" d="M69.625,206.458c1.5,15.5,1.447,48.028,2.375,56.875c0.976,9.299,2.761,17.25,7.262,24.75
	c4.744,7.906,3.014,6.111,9.375-0.25c6.359-6.355,5.16,1.192,10.902-7.028c5.746-8.219,9.727-37.847,9.299-48.919
	c-0.43-11.072,4.381-11.369,2.074-31.444c-1.137-9.901,0.629-1.733-17.9,8.392c-6.645,3.631-15.666-10.904-24.772-8.25"/>
<path fill="#FCEE21" d="M33.042,289.875c-6,9-4.821,30.184-3.231,38.262c2.171,11.031,4.663,27.501,5.73,35.521
	c0.841,6.313,4,15.543,9,9.605c5-5.939,7-13.605,9-30.271c2-16.668,5.459-15.118,5.459-27.784c0-12.668-8.144-30.886-20.875-29.769
	c-2.459,0.216-4.5,3.894-4.5,3.894"/>
<path fill="#FCEE21" d="M80.083,299.718c0.391,4.979-0.5,25.332,8.369,41c1.798,14.332,3.882,21.666,5.34,28.666s15.395,19,14.728-4
	c-0.666-23,0.902-34.018,2.032-41.666c1.885-12.76-2.594-35.439-7.594-37.771c-5-2.334-12.939,3.952-16.708,7.39
	C84.25,296.67,79.692,294.739,80.083,299.718"/>
<path fill="#FCEE21" d="M133.334,142.615c1.551,6.64,4.818,17.773,10.273,17.269c3.986-0.368,7.383-1.121,8.393-7.884
	c1.667-11.167-6.023-30.378-10.567-38.167C136.691,105.706,127,115.5,133.334,142.615z"/>
<path fill="#FCEE21" d="M27.333,137.188c7.031-8.667,14.285-18.021,5.258-22.948c-3.81-2.079-7.529-10.384-13.064-5.457
	c-2.034,1.812-10.153,10.293-11.056,13.267c-2.507,8.261-9.761,26.066-8.271,37.438C0.645,162.892,17.14,149.752,27.333,137.188z"/>
</svg>
