<?xml version="1.0" encoding="utf-8"?>
<!-- Generator: Adobe Illustrator 16.0.0, SVG Export Plug-In . SVG Version: 6.00 Build 0)  -->
<!DOCTYPE svg PUBLIC "-//W3C//DTD SVG 1.1//EN" "http://www.w3.org/Graphics/SVG/1.1/DTD/svg11.dtd">
<svg version="1.1" xmlns="http://www.w3.org/2000/svg" xmlns:xlink="http://www.w3.org/1999/xlink" x="0px" y="0px"
	 width="154.667px" height="387.333px" viewBox="0 0 154.667 387.333" enable-background="new 0 0 154.667 387.333"
	 xml:space="preserve">
<g id="Layer_2">
	<path fill="#FCEE21" d="M30.27,55.088c1.79,14.789,3.857,31.84,12.127,32.709C58.667,87,63.881,81.077,74.94,81.038
		s11.105,3.498,25.583,5.063s16.456-8.203,16.456-12.646s2.633-23.43-5.646-29.759S84.7,32.937,77.105,34.203
		S28.68,41.956,30.27,55.088z"/>
	<path fill="#FCEE21" d="M59.384,10.152c11.392,7.595,24.202,5.063,27.607,5.063c8.436,5.516,32.352,12.064,25.386,13.759
		c-6.965,1.695-28.689,5.748-45.031,5.012s-35.122-2.581-35.122-2.581s9.69-2.826,18.4-8.282S59.384,10.152,59.384,10.152z"/>
	<path fill="#FCEE21" d="M41.333,94.664c1.256,18.338,1.333,29,0,38.667s2.333,16,11,25.333s7,11.334,12.333,20
		s2.935,10.332,9.134,9.666s12.01-2.333,17.938-17.666s6.261-16,12.261-20s8-8.667,7.333-19.333s1.666-31,4-36.667
		S85.066,85.331,78.2,84.331S40.99,89.644,41.333,94.664z"/>
	<path fill="#FCEE21" d="M41.067,149.33c-4.985,18.023-11.285,43.666-10.843,62.333s2.044,41,5.41,46s11.033,10.666,15.699,16.333
		s9.333,13,13.333,7s5.667-27.666,6.667-36.333s6.268-32.667,2.467-43.667S42.303,144.862,41.067,149.33z"/>
	<path fill="#FCEE21" d="M80.667,195.663c3.281,16.279,12,41.333,14,50s5,20.667,7,29.667s7.264,14,11.965,6.333
		s11.369-9.667,15.035-19s3-45.666,0-56.333s-11.763-34.667-13.215-42.334s0.548-18.667-7.452-11S79.953,192.121,80.667,195.663z"/>
	<path fill="#FCEE21" d="M107.833,295.658c0.391,4.979-0.5,25.333,8.369,41c1.798,14.333,3.882,21.667,5.34,28.667
		s15.395,19,14.729-4s3.031-34,2.031-41.667s-4.9-35.667-9.9-38s-11.8,2.229-15.568,5.667
		C110.833,290.658,107.442,290.679,107.833,295.658z"/>
	<path fill="#FCEE21" d="M45.667,291.325c-6,9-8,28.358-6,36.346s5.333,30.321,6,36.654s4,15.543,9,9.604s7-13.604,9-30.271
		s5.667-15.333,5.667-28s-14.321-36.896-21-26S45.667,291.325,45.667,291.325z"/>
</g>
<g id="Layer_3">
	<path fill="#FCEE21" d="M96.833,31.986c0,0,18.957-3.509,26.896-2.581s15.987,16.07,15.796,32.499s3.418,15.387,6.582,29.918
		s-4.688,20.324-10.235,19.759s-9.073,3.063-11.139-9.759c-9.065-14.823-3.268-44.203-9.597-54.329
		c-6.33-10.126-6.84-9.085-18.303-11.603S96.833,31.986,96.833,31.986z"/>
	<path fill="#FCEE21" d="M27.738,32.986C12.333,34,9.333,58,11.017,71.56C8.88,82.736,5.641,83.519,6.32,98.759
		s8.127,15.883,9.709,16.169s8.566,0.138,10.709-10.207s5.486-17.354,5.486-17.354s-4.705-35.52-2.119-38.443
		c6.562-8.257,31.81-12.83,31.81-12.83S43.143,31.973,27.738,32.986z"/>
</g>
<g id="Layer_4">
</g>
</svg>
